<svg width="1900" height="783" viewBox="0 0 1900 783" fill="none" xmlns="http://www.w3.org/2000/svg">
<path d="M1899.05 0L1870.23 187.317H1687.72L1670.43 292.022H1831.81L1802.99 479.34H1640.65L1622.4 595.572H1802.99L1773.21 782.889H1385.13L1510.01 0H1899.05Z" fill="white"/>
<path d="M1499.95 0L1275.17 375.595L1397.17 782.889H1172.39C1169.18 770.081 1166.62 759.515 1164.7 751.189C1149.33 688.43 1139.73 648.405 1135.88 631.114C1128.84 599.735 1119.55 554.266 1108.03 494.709C1104.82 476.138 1100.02 450.842 1093.62 418.822L1035.98 782.889H824.649L947.605 0H1159.9L1107.07 333.328C1123.72 300.027 1136.84 273.451 1146.45 253.598C1173.35 199.805 1198 151.775 1220.42 109.508L1280.93 0H1499.95Z" fill="white"/>
<path d="M915.352 0L787.593 782.889H576.26L703.06 0H915.352Z" fill="white"/>
<path d="M668.578 0L544.66 782.889H346.777C342.934 767.52 340.053 754.712 338.131 744.465C322.121 672.74 311.875 625.351 307.392 602.296C297.786 554.907 287.219 496.31 275.692 426.507C271.85 402.171 266.727 369.831 260.323 329.486C256.48 368.55 253.598 399.61 251.677 422.664C245.273 488.625 239.189 541.779 233.426 582.124C227.662 622.469 220.618 666.657 212.293 714.687C209.731 731.337 205.568 754.071 199.805 782.889H0L123.917 0H323.722L368.871 216.135L416.901 475.497C420.103 435.152 422.664 403.132 424.585 379.437C430.349 309.634 435.792 251.357 440.916 204.608C444.118 174.509 449.561 130.642 457.246 73.0056C459.167 55.0744 462.369 30.7392 466.852 0H668.578Z" fill="white"/>
</svg>
