<svg width="1900" height="783" viewBox="0 0 1900 783" fill="none" xmlns="http://www.w3.org/2000/svg">
<path d="M668.568 0.110718L544.651 783H346.767C342.925 767.63 340.043 754.822 338.122 744.576C322.112 672.851 311.866 625.462 307.383 602.407C297.777 555.018 287.21 496.421 275.683 426.617C271.841 402.282 266.717 369.942 260.313 329.597C256.471 368.661 253.589 399.72 251.668 422.775C245.264 488.736 239.18 541.889 233.417 582.235C227.653 622.58 220.609 666.767 212.283 714.797C209.722 731.448 205.559 754.182 199.796 783H-0.00938034L123.908 0.110718H323.713L368.861 216.246L416.891 475.608C420.093 435.263 422.655 403.243 424.576 379.548C430.34 309.744 435.783 251.468 440.906 204.719C444.108 174.62 449.552 130.752 457.236 73.1163C459.158 55.1851 462.36 30.8499 466.842 0.110718H668.568ZM915.343 0.110718L787.583 783H576.251L703.05 0.110718H915.343ZM1499.94 0.110718L1275.16 375.705L1397.16 783H1172.38C1169.17 770.192 1166.61 759.625 1164.69 751.3C1149.32 688.541 1139.72 648.516 1135.87 631.225C1128.83 599.846 1119.54 554.377 1108.02 494.82C1104.81 476.248 1100.01 450.952 1093.61 418.932L1035.97 783H824.639L947.596 0.110718H1159.89L1107.06 333.439C1123.71 300.138 1136.83 273.562 1146.44 253.709C1173.34 199.916 1197.99 151.886 1220.41 109.619L1280.92 0.110718H1499.94ZM1899.04 0.110718L1870.22 187.428H1687.71L1670.42 292.133H1831.8L1802.98 479.45H1640.64L1622.39 595.683H1802.98L1773.2 783H1385.12L1510 0.110718H1899.04Z" fill="white"/>
</svg>
